<svg width="39" height="33" viewBox="0 0 39 33" fill="none" xmlns="http://www.w3.org/2000/svg">
<path fill-rule="evenodd" clip-rule="evenodd" d="M21.7087 0C16.7331 0 13.0389 3.50728 13.4117 8.10961C13.754 12.331 17.3556 16.0529 21.7087 16.0529C26.0632 16.0529 29.6574 12.3291 30.0057 8.11115C30.3789 3.58658 26.6925 0 21.7087 0ZM21.7087 2.29327C18.2244 2.29327 15.6933 4.66254 15.9589 7.94327C16.2313 11.3011 19.0385 13.7596 21.7087 13.7596C24.3777 13.7596 27.1812 11.3015 27.4587 7.94166C27.7239 4.72648 25.185 2.29327 21.7087 2.29327Z" fill="white"/>
<path fill-rule="evenodd" clip-rule="evenodd" d="M5.15722 29.2206C6.61153 21.9846 14.403 18.3462 21.7087 18.3462C29.015 18.3462 36.8069 21.9851 38.2613 29.2219C38.3921 29.8728 38.2651 30.5698 37.8351 31.1336C37.3855 31.7232 36.6444 32.1058 35.7556 32.1058H7.6627C6.77448 32.1058 6.03287 31.7237 5.58274 31.1342C5.15226 30.5705 5.02459 29.873 5.15722 29.2206ZM21.7087 20.6394C15.1277 20.6394 8.82503 23.8803 7.67035 29.629L7.67005 29.6306L7.66974 29.6321C7.6573 29.6931 7.65968 29.7439 7.6675 29.7807C7.67025 29.7937 7.67349 29.8042 7.67662 29.8125H35.7406C35.7438 29.804 35.7471 29.7933 35.7499 29.7801C35.7579 29.7426 35.7604 29.6909 35.748 29.6291C34.5926 23.8803 28.2897 20.6394 21.7087 20.6394Z" fill="white"/>
<path fill-rule="evenodd" clip-rule="evenodd" d="M5.74644 9.17308C6.4517 9.17308 7.02342 9.68644 7.02342 10.3197V18.3462C7.02342 18.9794 6.4517 19.4928 5.74644 19.4928C5.04118 19.4928 4.46945 18.9794 4.46945 18.3462V10.3197C4.46945 9.68644 5.04118 9.17308 5.74644 9.17308Z" fill="white"/>
<path fill-rule="evenodd" clip-rule="evenodd" d="M0 14.3329C0 13.6997 0.571726 13.1863 1.27699 13.1863H10.2159C10.9211 13.1863 11.4929 13.6997 11.4929 14.3329C11.4929 14.9662 10.9211 15.4796 10.2159 15.4796H1.27699C0.571726 15.4796 0 14.9662 0 14.3329Z" fill="white"/>
</svg>
