<svg width="29" height="24" viewBox="0 0 29 24" fill="none" xmlns="http://www.w3.org/2000/svg">
<path d="M1.8125 21.375C1.8125 21.6734 1.95572 21.9595 2.21065 22.1705C2.46558 22.3815 2.81135 22.5 3.17188 22.5H25.8281C26.1887 22.5 26.5344 22.3815 26.7893 22.1705C27.0443 21.9595 27.1875 21.6734 27.1875 21.375V8.25H1.8125V21.375ZM19.9375 9.9375C19.9375 9.88777 19.9614 9.84008 20.0039 9.80492C20.0463 9.76975 20.104 9.75 20.1641 9.75H22.4297C22.4898 9.75 22.5474 9.76975 22.5899 9.80492C22.6324 9.84008 22.6562 9.88777 22.6562 9.9375V11.8125C22.6562 11.8622 22.6324 11.9099 22.5899 11.9451C22.5474 11.9802 22.4898 12 22.4297 12H20.1641C20.104 12 20.0463 11.9802 20.0039 11.9451C19.9614 11.9099 19.9375 11.8622 19.9375 11.8125V9.9375ZM19.9375 13.6875C19.9375 13.6378 19.9614 13.5901 20.0039 13.5549C20.0463 13.5198 20.104 13.5 20.1641 13.5H22.4297C22.4898 13.5 22.5474 13.5198 22.5899 13.5549C22.6324 13.5901 22.6562 13.6378 22.6562 13.6875V15.5625C22.6562 15.6122 22.6324 15.6599 22.5899 15.6951C22.5474 15.7302 22.4898 15.75 22.4297 15.75H20.1641C20.104 15.75 20.0463 15.7302 20.0039 15.6951C19.9614 15.6599 19.9375 15.6122 19.9375 15.5625V13.6875ZM15.4062 9.9375C15.4062 9.88777 15.4301 9.84008 15.4726 9.80492C15.5151 9.76975 15.5727 9.75 15.6328 9.75H17.8984C17.9585 9.75 18.0162 9.76975 18.0586 9.80492C18.1011 9.84008 18.125 9.88777 18.125 9.9375V11.8125C18.125 11.8622 18.1011 11.9099 18.0586 11.9451C18.0162 11.9802 17.9585 12 17.8984 12H15.6328C15.5727 12 15.5151 11.9802 15.4726 11.9451C15.4301 11.9099 15.4062 11.8622 15.4062 11.8125V9.9375ZM15.4062 13.6875C15.4062 13.6378 15.4301 13.5901 15.4726 13.5549C15.5151 13.5198 15.5727 13.5 15.6328 13.5H17.8984C17.9585 13.5 18.0162 13.5198 18.0586 13.5549C18.1011 13.5901 18.125 13.6378 18.125 13.6875V15.5625C18.125 15.6122 18.1011 15.6599 18.0586 15.6951C18.0162 15.7302 17.9585 15.75 17.8984 15.75H15.6328C15.5727 15.75 15.5151 15.7302 15.4726 15.6951C15.4301 15.6599 15.4062 15.6122 15.4062 15.5625V13.6875ZM15.4062 17.4375C15.4062 17.3878 15.4301 17.3401 15.4726 17.3049C15.5151 17.2698 15.5727 17.25 15.6328 17.25H17.8984C17.9585 17.25 18.0162 17.2698 18.0586 17.3049C18.1011 17.3401 18.125 17.3878 18.125 17.4375V19.3125C18.125 19.3622 18.1011 19.4099 18.0586 19.4451C18.0162 19.4802 17.9585 19.5 17.8984 19.5H15.6328C15.5727 19.5 15.5151 19.4802 15.4726 19.4451C15.4301 19.4099 15.4062 19.3622 15.4062 19.3125V17.4375ZM10.875 13.6875C10.875 13.6378 10.8989 13.5901 10.9414 13.5549C10.9838 13.5198 11.0415 13.5 11.1016 13.5H13.3672C13.4273 13.5 13.4849 13.5198 13.5274 13.5549C13.5699 13.5901 13.5938 13.6378 13.5938 13.6875V15.5625C13.5938 15.6122 13.5699 15.6599 13.5274 15.6951C13.4849 15.7302 13.4273 15.75 13.3672 15.75H11.1016C11.0415 15.75 10.9838 15.7302 10.9414 15.6951C10.8989 15.6599 10.875 15.6122 10.875 15.5625V13.6875ZM10.875 17.4375C10.875 17.3878 10.8989 17.3401 10.9414 17.3049C10.9838 17.2698 11.0415 17.25 11.1016 17.25H13.3672C13.4273 17.25 13.4849 17.2698 13.5274 17.3049C13.5699 17.3401 13.5938 17.3878 13.5938 17.4375V19.3125C13.5938 19.3622 13.5699 19.4099 13.5274 19.4451C13.4849 19.4802 13.4273 19.5 13.3672 19.5H11.1016C11.0415 19.5 10.9838 19.4802 10.9414 19.4451C10.8989 19.4099 10.875 19.3622 10.875 19.3125V17.4375ZM6.34375 13.6875C6.34375 13.6378 6.36762 13.5901 6.41011 13.5549C6.4526 13.5198 6.51022 13.5 6.57031 13.5H8.83594C8.89603 13.5 8.95365 13.5198 8.99614 13.5549C9.03863 13.5901 9.0625 13.6378 9.0625 13.6875V15.5625C9.0625 15.6122 9.03863 15.6599 8.99614 15.6951C8.95365 15.7302 8.89603 15.75 8.83594 15.75H6.57031C6.51022 15.75 6.4526 15.7302 6.41011 15.6951C6.36762 15.6599 6.34375 15.6122 6.34375 15.5625V13.6875ZM6.34375 17.4375C6.34375 17.3878 6.36762 17.3401 6.41011 17.3049C6.4526 17.2698 6.51022 17.25 6.57031 17.25H8.83594C8.89603 17.25 8.95365 17.2698 8.99614 17.3049C9.03863 17.3401 9.0625 17.3878 9.0625 17.4375V19.3125C9.0625 19.3622 9.03863 19.4099 8.99614 19.4451C8.95365 19.4802 8.89603 19.5 8.83594 19.5H6.57031C6.51022 19.5 6.4526 19.4802 6.41011 19.4451C6.36762 19.4099 6.34375 19.3622 6.34375 19.3125V17.4375Z" fill="white" fill-opacity="0.5"/>
<path d="M25.8281 3H22.6608V1.5H19.942V3H9.05797V1.5H6.33922V3H3.17188C2.99404 2.99876 2.81766 3.02666 2.65291 3.08208C2.48816 3.13751 2.33829 3.21936 2.21193 3.32293C2.08558 3.4265 1.98523 3.54974 1.91668 3.68554C1.84812 3.82135 1.81272 3.96704 1.8125 4.11422V6.75H27.1875V4.11422C27.1873 3.96704 27.1519 3.82135 27.0833 3.68554C27.0148 3.54974 26.9144 3.4265 26.7881 3.32293C26.6617 3.21936 26.5118 3.13751 26.3471 3.08208C26.1823 3.02666 26.006 2.99876 25.8281 3Z" fill="white" fill-opacity="0.5"/>
</svg>
