<svg width="64" height="58" viewBox="0 0 64 58" fill="none" xmlns="http://www.w3.org/2000/svg">
<path d="M0.275879 54.8929C0.275879 55.7169 0.63321 56.5072 1.26926 57.0899C1.90532 57.6726 2.76799 58 3.6675 58H60.1946C61.0941 58 61.9568 57.6726 62.5928 57.0899C63.2289 56.5072 63.5862 55.7169 63.5862 54.8929V18.6429H0.275879V54.8929ZM45.4976 23.3036C45.4976 23.1662 45.5571 23.0345 45.6631 22.9374C45.7691 22.8403 45.9129 22.7857 46.0628 22.7857H51.7155C51.8655 22.7857 52.0092 22.8403 52.1152 22.9374C52.2213 23.0345 52.2808 23.1662 52.2808 23.3036V28.4821C52.2808 28.6195 52.2213 28.7512 52.1152 28.8483C52.0092 28.9454 51.8655 29 51.7155 29H46.0628C45.9129 29 45.7691 28.9454 45.6631 28.8483C45.5571 28.7512 45.4976 28.6195 45.4976 28.4821V23.3036ZM45.4976 33.6607C45.4976 33.5234 45.5571 33.3917 45.6631 33.2945C45.7691 33.1974 45.9129 33.1429 46.0628 33.1429H51.7155C51.8655 33.1429 52.0092 33.1974 52.1152 33.2945C52.2213 33.3917 52.2808 33.5234 52.2808 33.6607V38.8393C52.2808 38.9766 52.2213 39.1083 52.1152 39.2055C52.0092 39.3026 51.8655 39.3571 51.7155 39.3571H46.0628C45.9129 39.3571 45.7691 39.3026 45.6631 39.2055C45.5571 39.1083 45.4976 38.9766 45.4976 38.8393V33.6607ZM34.1921 23.3036C34.1921 23.1662 34.2517 23.0345 34.3577 22.9374C34.4637 22.8403 34.6075 22.7857 34.7574 22.7857H40.4101C40.56 22.7857 40.7038 22.8403 40.8098 22.9374C40.9158 23.0345 40.9754 23.1662 40.9754 23.3036V28.4821C40.9754 28.6195 40.9158 28.7512 40.8098 28.8483C40.7038 28.9454 40.56 29 40.4101 29H34.7574C34.6075 29 34.4637 28.9454 34.3577 28.8483C34.2517 28.7512 34.1921 28.6195 34.1921 28.4821V23.3036ZM34.1921 33.6607C34.1921 33.5234 34.2517 33.3917 34.3577 33.2945C34.4637 33.1974 34.6075 33.1429 34.7574 33.1429H40.4101C40.56 33.1429 40.7038 33.1974 40.8098 33.2945C40.9158 33.3917 40.9754 33.5234 40.9754 33.6607V38.8393C40.9754 38.9766 40.9158 39.1083 40.8098 39.2055C40.7038 39.3026 40.56 39.3571 40.4101 39.3571H34.7574C34.6075 39.3571 34.4637 39.3026 34.3577 39.2055C34.2517 39.1083 34.1921 38.9766 34.1921 38.8393V33.6607ZM34.1921 44.0179C34.1921 43.8805 34.2517 43.7488 34.3577 43.6517C34.4637 43.5546 34.6075 43.5 34.7574 43.5H40.4101C40.56 43.5 40.7038 43.5546 40.8098 43.6517C40.9158 43.7488 40.9754 43.8805 40.9754 44.0179V49.1964C40.9754 49.3338 40.9158 49.4655 40.8098 49.5626C40.7038 49.6597 40.56 49.7143 40.4101 49.7143H34.7574C34.6075 49.7143 34.4637 49.6597 34.3577 49.5626C34.2517 49.4655 34.1921 49.3338 34.1921 49.1964V44.0179ZM22.8867 33.6607C22.8867 33.5234 22.9463 33.3917 23.0523 33.2945C23.1583 33.1974 23.3021 33.1429 23.452 33.1429H29.1047C29.2546 33.1429 29.3984 33.1974 29.5044 33.2945C29.6104 33.3917 29.67 33.5234 29.67 33.6607V38.8393C29.67 38.9766 29.6104 39.1083 29.5044 39.2055C29.3984 39.3026 29.2546 39.3571 29.1047 39.3571H23.452C23.3021 39.3571 23.1583 39.3026 23.0523 39.2055C22.9463 39.1083 22.8867 38.9766 22.8867 38.8393V33.6607ZM22.8867 44.0179C22.8867 43.8805 22.9463 43.7488 23.0523 43.6517C23.1583 43.5546 23.3021 43.5 23.452 43.5H29.1047C29.2546 43.5 29.3984 43.5546 29.5044 43.6517C29.6104 43.7488 29.67 43.8805 29.67 44.0179V49.1964C29.67 49.3338 29.6104 49.4655 29.5044 49.5626C29.3984 49.6597 29.2546 49.7143 29.1047 49.7143H23.452C23.3021 49.7143 23.1583 49.6597 23.0523 49.5626C22.9463 49.4655 22.8867 49.3338 22.8867 49.1964V44.0179ZM11.5813 33.6607C11.5813 33.5234 11.6409 33.3917 11.7469 33.2945C11.8529 33.1974 11.9966 33.1429 12.1466 33.1429H17.7993C17.9492 33.1429 18.093 33.1974 18.199 33.2945C18.305 33.3917 18.3645 33.5234 18.3645 33.6607V38.8393C18.3645 38.9766 18.305 39.1083 18.199 39.2055C18.093 39.3026 17.9492 39.3571 17.7993 39.3571H12.1466C11.9966 39.3571 11.8529 39.3026 11.7469 39.2055C11.6409 39.1083 11.5813 38.9766 11.5813 38.8393V33.6607ZM11.5813 44.0179C11.5813 43.8805 11.6409 43.7488 11.7469 43.6517C11.8529 43.5546 11.9966 43.5 12.1466 43.5H17.7993C17.9492 43.5 18.093 43.5546 18.199 43.6517C18.305 43.7488 18.3645 43.8805 18.3645 44.0179V49.1964C18.3645 49.3338 18.305 49.4655 18.199 49.5626C18.093 49.6597 17.9492 49.7143 17.7993 49.7143H12.1466C11.9966 49.7143 11.8529 49.6597 11.7469 49.5626C11.6409 49.4655 11.5813 49.3338 11.5813 49.1964V44.0179Z" fill="#1C2AA8"/>
<path d="M60.1946 4.14286H52.2921V0H45.5089V4.14286H18.3532V0H11.57V4.14286H3.6675C3.22381 4.13944 2.78375 4.21649 2.3727 4.36956C1.96165 4.52264 1.58772 4.74871 1.27246 5.03476C0.9572 5.32081 0.706838 5.66118 0.535798 6.03626C0.364759 6.41135 0.276423 6.81373 0.275879 7.22022V14.5H63.5862V7.22022C63.5857 6.81373 63.4973 6.41135 63.3263 6.03626C63.1553 5.66118 62.9049 5.32081 62.5896 5.03476C62.2744 4.74871 61.9005 4.52264 61.4894 4.36956C61.0784 4.21649 60.6383 4.13944 60.1946 4.14286Z" fill="#1C2AA8"/>
</svg>
