<svg width="26" height="24" viewBox="0 0 26 24" fill="none" xmlns="http://www.w3.org/2000/svg">
<g clip-path="url(#clip0_148_35)">
<path d="M18.6225 0.219C18.4702 0.0787966 18.2639 4.21785e-05 18.0489 0H7.95113C7.73605 4.21785e-05 7.52977 0.0787966 7.3775 0.219L0.23725 6.81C0.0853629 6.95056 4.56933e-05 7.14097 0 7.3395V16.6605C4.56933e-05 16.859 0.0853629 17.0494 0.23725 17.19L7.3775 23.781C7.52977 23.9212 7.73605 24 7.95113 24H18.0489C18.2639 24 18.4702 23.9212 18.6225 23.781L25.7628 17.19C25.9146 17.0494 26 16.859 26 16.6605V7.3395C26 7.14097 25.9146 6.95056 25.7628 6.81L18.6225 0.219ZM8.70025 6.969L13 10.9395L17.2998 6.969C17.3753 6.89927 17.465 6.84395 17.5637 6.80621C17.6624 6.76848 17.7682 6.74905 17.875 6.74905C17.9818 6.74905 18.0876 6.76848 18.1863 6.80621C18.285 6.84395 18.3747 6.89927 18.4503 6.969C18.5258 7.03873 18.5857 7.12152 18.6266 7.21262C18.6675 7.30373 18.6885 7.40138 18.6885 7.5C18.6885 7.59862 18.6675 7.69627 18.6266 7.78738C18.5857 7.87848 18.5258 7.96127 18.4503 8.031L14.1489 12L18.4503 15.969C18.5258 16.0387 18.5857 16.1215 18.6266 16.2126C18.6675 16.3037 18.6885 16.4014 18.6885 16.5C18.6885 16.5986 18.6675 16.6963 18.6266 16.7874C18.5857 16.8785 18.5258 16.9613 18.4503 17.031C18.3747 17.1007 18.285 17.156 18.1863 17.1938C18.0876 17.2315 17.9818 17.2509 17.875 17.2509C17.7682 17.2509 17.6624 17.2315 17.5637 17.1938C17.465 17.156 17.3753 17.1007 17.2998 17.031L13 13.0605L8.70025 17.031C8.62471 17.1007 8.53503 17.156 8.43632 17.1938C8.33762 17.2315 8.23183 17.2509 8.125 17.2509C8.01817 17.2509 7.91238 17.2315 7.81368 17.1938C7.71498 17.156 7.62529 17.1007 7.54975 17.031C7.47421 16.9613 7.41428 16.8785 7.3734 16.7874C7.33252 16.6963 7.31147 16.5986 7.31147 16.5C7.31147 16.4014 7.33252 16.3037 7.3734 16.2126C7.41428 16.1215 7.47421 16.0387 7.54975 15.969L11.8511 12L7.54975 8.031C7.39718 7.89017 7.31147 7.69916 7.31147 7.5C7.31147 7.30084 7.39718 7.10983 7.54975 6.969C7.70232 6.82817 7.90924 6.74905 8.125 6.74905C8.34076 6.74905 8.54768 6.82817 8.70025 6.969Z" fill="#F81212"/>
</g>
<defs>
<clipPath id="clip0_148_35">
<rect width="26" height="24" fill="white"/>
</clipPath>
</defs>
</svg>
