<svg width="34" height="32" viewBox="0 0 34 32" fill="none" xmlns="http://www.w3.org/2000/svg">
<path d="M29.7201 6H22.3125V3C22.3125 2.73478 22.2006 2.48043 22.0013 2.29289C21.802 2.10536 21.5318 2 21.25 2H12.75C12.4682 2 12.198 2.10536 11.9987 2.29289C11.7994 2.48043 11.6875 2.73478 11.6875 3V6H4.27988L4.25 8.5H6.44141L7.77551 28.125C7.80927 28.6325 8.04717 29.1088 8.4408 29.4572C8.83444 29.8055 9.35425 29.9996 9.89453 30H24.1055C24.6454 29.9999 25.1651 29.8064 25.559 29.4587C25.9528 29.111 26.1912 28.6353 26.2258 28.1281L27.5586 8.5H29.75L29.7201 6ZM11.6875 26L11.0898 10H13.2812L13.8789 26H11.6875ZM18.0625 26H15.9375V10H18.0625V26ZM19.6562 6H14.3438V4.25C14.3438 4.1837 14.3717 4.12011 14.4215 4.07322C14.4714 4.02634 14.5389 4 14.6094 4H19.3906C19.4611 4 19.5286 4.02634 19.5785 4.07322C19.6283 4.12011 19.6562 4.1837 19.6562 4.25V6ZM22.3125 26H20.1211L20.7188 10H22.9102L22.3125 26Z" fill="#DC3210"/>
</svg>
