<svg width="20" height="28" viewBox="0 0 20 28" fill="none" xmlns="http://www.w3.org/2000/svg">
<path d="M10 14C11.0384 14 12.0534 13.6151 12.9167 12.894C13.7801 12.1729 14.453 11.148 14.8504 9.94886C15.2477 8.74972 15.3517 7.43022 15.1491 6.15722C14.9466 4.88422 14.4465 3.7149 13.7123 2.79711C12.9781 1.87933 12.0426 1.25432 11.0242 1.0011C10.0058 0.747884 8.95022 0.877843 7.99091 1.37454C7.0316 1.87124 6.21166 2.71238 5.63478 3.79157C5.05791 4.87077 4.75 6.13956 4.75 7.4375C4.75 9.17799 5.30312 10.8472 6.28769 12.0779C7.27226 13.3086 8.60761 14 10 14ZM10 15.875C6.74594 15.875 0.25 18.3875 0.25 23.375V27.125H19.75V23.375C19.75 18.3875 13.2541 15.875 10 15.875Z" fill="white" fill-opacity="0.8"/>
</svg>
