<svg width="24" height="30" viewBox="0 0 24 30" fill="none" xmlns="http://www.w3.org/2000/svg">
<path d="M12 15C13.0384 15 14.0534 14.6151 14.9167 13.894C15.7801 13.1729 16.453 12.148 16.8504 10.9489C17.2477 9.74972 17.3517 8.43022 17.1491 7.15722C16.9466 5.88422 16.4465 4.7149 15.7123 3.79711C14.9781 2.87933 14.0426 2.25432 13.0242 2.0011C12.0058 1.74788 10.9502 1.87784 9.99091 2.37454C9.0316 2.87124 8.21166 3.71238 7.63478 4.79157C7.05791 5.87077 6.75 7.13956 6.75 8.4375C6.75 10.178 7.30312 11.8472 8.28769 13.0779C9.27226 14.3086 10.6076 15 12 15ZM12 16.875C8.74594 16.875 2.25 19.3875 2.25 24.375V28.125H21.75V24.375C21.75 19.3875 15.2541 16.875 12 16.875Z" fill="white" fill-opacity="0.5"/>
</svg>
