<svg width="29" height="23" viewBox="0 0 29 23" fill="none" xmlns="http://www.w3.org/2000/svg">
<path d="M19.0312 13.1875H9.96875V11.5H0.90625V21.8359C0.90625 22.0038 0.97786 22.1647 1.10533 22.2834C1.23279 22.4021 1.40567 22.4688 1.58594 22.4688H27.4141C27.5943 22.4688 27.7672 22.4021 27.8947 22.2834C28.0221 22.1647 28.0938 22.0038 28.0938 21.8359V11.5H19.0312V13.1875Z" fill="white" fill-opacity="0.5"/>
<path d="M28.0938 4.53906C28.0938 4.37123 28.0221 4.21027 27.8947 4.0916C27.7672 3.97292 27.5943 3.90625 27.4141 3.90625H21.75V0.953125C21.75 0.841237 21.7023 0.733931 21.6173 0.654814C21.5323 0.575698 21.4171 0.53125 21.2969 0.53125H7.70312C7.58295 0.53125 7.46769 0.575698 7.38272 0.654814C7.29774 0.733931 7.25 0.841237 7.25 0.953125V3.90625H1.58594C1.40567 3.90625 1.23279 3.97292 1.10533 4.0916C0.97786 4.21027 0.90625 4.37123 0.90625 4.53906V9.8125H28.0938V4.53906ZM19.4844 3.90625H9.51562V2.64062H19.4844V3.90625Z" fill="white" fill-opacity="0.5"/>
</svg>
