<svg width="29" height="27" viewBox="0 0 29 27" fill="none" xmlns="http://www.w3.org/2000/svg">
<path d="M19.0312 15.1875H9.96875V13.5H0.90625V23.8359C0.90625 24.0038 0.97786 24.1647 1.10533 24.2834C1.23279 24.4021 1.40567 24.4688 1.58594 24.4688H27.4141C27.5943 24.4688 27.7672 24.4021 27.8947 24.2834C28.0221 24.1647 28.0938 24.0038 28.0938 23.8359V13.5H19.0312V15.1875Z" fill="white" fill-opacity="0.8"/>
<path d="M28.0938 6.53906C28.0938 6.37123 28.0221 6.21027 27.8947 6.0916C27.7672 5.97292 27.5943 5.90625 27.4141 5.90625H21.75V2.95312C21.75 2.84124 21.7023 2.73393 21.6173 2.65481C21.5323 2.5757 21.4171 2.53125 21.2969 2.53125H7.70312C7.58295 2.53125 7.46769 2.5757 7.38272 2.65481C7.29774 2.73393 7.25 2.84124 7.25 2.95312V5.90625H1.58594C1.40567 5.90625 1.23279 5.97292 1.10533 6.0916C0.97786 6.21027 0.90625 6.37123 0.90625 6.53906V11.8125H28.0938V6.53906ZM19.4844 5.90625H9.51562V4.64062H19.4844V5.90625Z" fill="white" fill-opacity="0.8"/>
</svg>
