<svg width="30" height="26" viewBox="0 0 30 26" fill="none" xmlns="http://www.w3.org/2000/svg">
<path d="M26.25 2.4375L24.375 1.625L22.5 2.4375L20.625 1.625L18.75 2.4375L16.875 1.625L15 2.4375L13.125 1.625L11.25 2.4375L8.4375 1.625V14.6275H21.5625V21.5312C21.5625 23.1019 23.5002 24.375 25.3125 24.375H26.0156C27.8279 24.375 29.0625 23.1019 29.0625 21.5312V1.625L26.25 2.4375ZM15.9668 12.1875L15.9375 10.5625H25.2832L25.3125 12.1875H15.9668ZM12.2168 8.125L12.1875 6.5H25.2832L25.3125 8.125H12.2168Z" fill="white" fill-opacity="0.8"/>
<path d="M19.6875 21.5312V16.25H0.9375V17.875C0.9375 20.442 1.27617 21.512 1.78477 22.325C2.64785 23.7047 4.21055 24.375 6.5625 24.375H21.5625C21.5625 24.375 19.6875 23.3594 19.6875 21.5312Z" fill="white" fill-opacity="0.8"/>
</svg>
