<svg width="30" height="24" viewBox="0 0 30 24" fill="none" xmlns="http://www.w3.org/2000/svg">
<path d="M26.25 1.4375L24.375 0.625L22.5 1.4375L20.625 0.625L18.75 1.4375L16.875 0.625L15 1.4375L13.125 0.625L11.25 1.4375L8.4375 0.625V13.6275H21.5625V20.5312C21.5625 22.1019 23.5002 23.375 25.3125 23.375H26.0156C27.8279 23.375 29.0625 22.1019 29.0625 20.5312V0.625L26.25 1.4375ZM15.9668 11.1875L15.9375 9.5625H25.2832L25.3125 11.1875H15.9668ZM12.2168 7.125L12.1875 5.5H25.2832L25.3125 7.125H12.2168Z" fill="white" fill-opacity="0.5"/>
<path d="M19.6875 20.5312V15.25H0.9375V16.875C0.9375 19.442 1.27617 20.512 1.78477 21.325C2.64785 22.7047 4.21055 23.375 6.5625 23.375H21.5625C21.5625 23.375 19.6875 22.3594 19.6875 20.5312Z" fill="white" fill-opacity="0.5"/>
</svg>
