<svg width="23" height="19" viewBox="0 0 23 19" fill="none" xmlns="http://www.w3.org/2000/svg">
<path fill-rule="evenodd" clip-rule="evenodd" d="M4.25314 1.33233C5.8269 0.463653 7.67714 0 9.56988 0C12.1079 0.000133459 14.542 0.833076 16.3366 2.31562C18.1313 3.79816 19.1396 5.80888 19.1398 7.90551C19.1398 9.46908 18.5785 10.9976 17.5269 12.2976C16.4754 13.5977 14.9808 14.611 13.2321 15.2093C11.4835 15.8077 9.55927 15.9642 7.70289 15.6592C5.84652 15.3542 4.14133 14.6012 2.80296 13.4956C1.46459 12.39 0.553143 10.9814 0.183887 9.44785C-0.185369 7.91432 0.0041464 6.32478 0.728468 4.88023C1.45279 3.43568 2.67939 2.201 4.25314 1.33233ZM9.56983 1.46154C8.02702 1.46155 6.51887 1.83948 5.23608 2.54755C3.95327 3.25563 2.95344 4.26205 2.36302 5.43954C1.77261 6.61703 1.61813 7.9127 1.91912 9.16272C2.22011 10.4127 2.96305 11.5609 4.05399 12.4622C5.14493 13.3634 6.53487 13.9771 8.04805 14.2257C9.56123 14.4744 11.1297 14.3468 12.5551 13.859C13.9804 13.3713 15.1987 12.5454 16.0559 11.4857C16.913 10.426 17.3705 9.18009 17.3705 7.9056M9.56983 1.46154C11.6386 1.46166 13.6227 2.14062 15.0856 3.34908C16.5485 4.55754 17.3704 6.19658 17.3705 7.9056" fill="white" fill-opacity="0.5"/>
<path fill-rule="evenodd" clip-rule="evenodd" d="M15.4242 12.7417C15.7696 12.4563 16.3297 12.4563 16.6752 12.7417L22.7409 17.7525C23.0864 18.0379 23.0864 18.5006 22.7409 18.786C22.3954 19.0713 21.8353 19.0713 21.4899 18.786L15.4242 13.7752C15.0787 13.4898 15.0787 13.0271 15.4242 12.7417Z" fill="white" fill-opacity="0.5"/>
</svg>
