<svg width="31" height="25" viewBox="0 0 31 25" fill="none" xmlns="http://www.w3.org/2000/svg">
<path fill-rule="evenodd" clip-rule="evenodd" d="M5.7325 1.75306C7.85365 0.61007 10.3474 0 12.8985 0C16.3194 0.000175604 19.6001 1.09615 22.019 3.04686C24.4378 4.99758 25.7969 7.64326 25.7971 10.402C25.7971 12.4593 25.0406 14.4705 23.6233 16.1811C22.206 17.8917 20.1915 19.225 17.8346 20.0123C15.4777 20.7996 12.8842 21.0056 10.3822 20.6042C7.88009 20.2029 5.58179 19.2122 3.7779 17.7574C1.97401 16.3026 0.74554 14.4492 0.247848 12.4314C-0.249845 10.4136 0.00558862 8.32208 0.981848 6.42135C1.95811 4.52063 3.61135 2.89605 5.7325 1.75306ZM12.8985 1.92308C10.819 1.92309 8.7863 2.42037 7.05732 3.35204C5.32831 4.28372 3.98072 5.60796 3.18495 7.15728C2.38917 8.70661 2.18096 10.4115 2.58664 12.0562C2.99232 13.701 3.99368 15.2118 5.46408 16.3976C6.93447 17.5834 8.80787 18.3909 10.8474 18.7181C12.8869 19.0453 15.0009 18.8773 16.922 18.2356C18.8432 17.5938 20.4853 16.5071 21.6405 15.1127C22.7958 13.7184 23.4124 12.0791 23.4125 10.4021M12.8985 1.92308C15.6869 1.92324 18.3611 2.8166 20.3328 4.40669C22.3045 5.99677 23.4123 8.15339 23.4125 10.4021" fill="#D9D9D9"/>
<path fill-rule="evenodd" clip-rule="evenodd" d="M20.7891 16.7654C21.2547 16.3899 22.0097 16.3899 22.4753 16.7654L30.6508 23.3586C31.1164 23.7341 31.1164 24.3429 30.6508 24.7184C30.1852 25.0939 29.4302 25.0939 28.9646 24.7184L20.7891 18.1252C20.3235 17.7497 20.3235 17.1409 20.7891 16.7654Z" fill="#D9D9D9"/>
</svg>
